<svg xmlns="http://www.w3.org/2000/svg" viewBox="0 0 25.39 25.39"><title>fondFichier 2</title><g id="b47cbef8-7d05-48eb-88cf-f26013943e48"><g id="b3a6b3be-8283-4f53-b863-58aa3282f49b"><circle cx="12.7" cy="12.7" r="12.38" style="fill:none;stroke:#1d1d1b;stroke-miterlimit:10;stroke-width:0.6274156735087346px"/><path d="M15,22.35a9.69,9.69,0,0,0,7.15-7.11" style="fill:none;stroke:#1d1d1b;stroke-linecap:round;stroke-miterlimit:10;stroke-width:0.489px"/><path d="M14.75,21.4a8.29,8.29,0,0,0,6.27-6" style="fill:none;stroke:#1d1d1b;stroke-linecap:round;stroke-miterlimit:10;stroke-width:0.421px"/><path d="M10.27,2.26A9.8,9.8,0,0,0,5.7,4.81,9.67,9.67,0,0,0,3.13,9.37" style="fill:none;stroke:#1d1d1b;stroke-linecap:round;stroke-miterlimit:10;stroke-width:0.489px"/><path d="M10.92,8.13,17.57,12a.76.76,0,0,1,0,1.31L10.92,17.1a.75.75,0,0,1-1.12-.65V8.78A.75.75,0,0,1,10.92,8.13Z" style="fill:none;stroke:#1d1d1b;stroke-linecap:round;stroke-miterlimit:10;stroke-width:0.489px"/></g></g></svg>